<svg width="24" height="24" viewBox="0 0 24 24" fill="none" xmlns="http://www.w3.org/2000/svg">
<g id="Add">
<path id="Shape" d="M20 11.5C20.2519 11.5 20.461 11.6868 20.4951 11.9291L20.4999 12.012C20.4941 12.2585 20.3094 12.4615 20.0709 12.4951L19.9856 12.5H13H12.5V13V20C12.5 20.2519 12.3132 20.461 12.0709 20.4951L11.988 20.4999C11.7415 20.4941 11.5385 20.3094 11.5049 20.0709L11.5 19.9856V13V12.5H11H4C3.74805 12.5 3.53902 12.3132 3.50492 12.0708L3.50014 11.988C3.50595 11.7415 3.69062 11.5385 3.92915 11.5049L4.01442 11.5H11H11.5V11V4C11.5 3.74805 11.6868 3.53902 11.9292 3.50492L12.012 3.50014C12.2585 3.50595 12.4615 3.69062 12.4951 3.92915L12.5 4.01442V11V11.5H13H20Z" fill="#494A4E" stroke="#494A4E"/>
</g>
</svg>
